# xmcd CD database file
#
# Track frame offsets:
#	150
#	14140
#	30103
#	50383
#	82702
#	104587
#	117443
#	140115
#	155191
#	180797
#	207005
#
# Disc length: 3034 seconds
#
# Revision: 0
# Processed by: cddbd v1.5PL3 Copyright (c) Steve Scherf et al.
# Submitted via: CDex 1.50beta9
#
DISCID=8a0bd80b
DTITLE=Tony Vega Band - Tastes Like Love
DYEAR=2004
DGENRE=Blues
TTITLE0=Swingin' Charlie
TTITLE1=Automatic
TTITLE2=Trick or Treat
TTITLE3=Hey Mama
TTITLE4=Mumbo Jumbo
TTITLE5=Hard to Love
TTITLE6=Fly
TTITLE7=Jimmie Lee
TTITLE8=Devil's Daughter
TTITLE9=Too Many Drivers
TTITLE10=Silver Belly
EXTD=YEAR: 2004
EXTT0=
EXTT1=
EXTT2=
EXTT3=
EXTT4=
EXTT5=
EXTT6=
EXTT7=
EXTT8=
EXTT9=
EXTT10=
PLAYORDER=
